<svg width="18" height="18" viewBox="0 0 18 18" fill="none" xmlns="http://www.w3.org/2000/svg">
<path d="M15 8.24925H16.5C16.5 4.40175 13.5952 1.5 9.74249 1.5V3C12.789 3 15 5.20725 15 8.24925Z" fill="#F8F8F8"/>
<path d="M9.75 6.00006C11.3272 6.00006 12 6.67281 12 8.25006H13.5C13.5 5.83131 12.1687 4.50006 9.75 4.50006V6.00006ZM12.3165 10.0823C12.1724 9.95132 11.983 9.88146 11.7884 9.88748C11.5937 9.8935 11.409 9.97492 11.2732 10.1146L9.4785 11.9603C9.0465 11.8778 8.178 11.6071 7.284 10.7153C6.39 9.82056 6.11925 8.94981 6.039 8.52081L7.88325 6.72531C8.02306 6.58965 8.1046 6.40492 8.11062 6.21021C8.11664 6.0155 8.04666 5.82609 7.9155 5.68206L5.14425 2.63481C5.01303 2.49032 4.83066 2.40269 4.63586 2.3905C4.44107 2.37832 4.2492 2.44255 4.101 2.56956L2.4735 3.96531C2.34383 4.09544 2.26644 4.26864 2.256 4.45206C2.24475 4.63956 2.03025 9.08106 5.47425 12.5266C8.47875 15.5303 12.2422 15.7501 13.2787 15.7501C13.4302 15.7501 13.5232 15.7456 13.548 15.7441C13.7314 15.7338 13.9045 15.6561 14.034 15.5258L15.429 13.8976C15.5561 13.7495 15.6205 13.5576 15.6084 13.3628C15.5964 13.1681 15.5089 12.9856 15.3645 12.8543L12.3165 10.0823Z" fill="#F8F8F8"/>
</svg>
