<svg width="30" height="31" viewBox="0 0 30 31" fill="none" xmlns="http://www.w3.org/2000/svg">
<path d="M12.5 17.75L18.9875 14L12.5 10.25V17.75ZM26.95 7.9625C27.1125 8.55 27.225 9.3375 27.3 10.3375C27.3875 11.3375 27.425 12.2 27.425 12.95L27.5 14C27.5 16.7375 27.3 18.75 26.95 20.0375C26.6375 21.1625 25.9125 21.8875 24.7875 22.2C24.2 22.3625 23.125 22.475 21.475 22.55C19.85 22.6375 18.3625 22.675 16.9875 22.675L15 22.75C9.7625 22.75 6.5 22.55 5.2125 22.2C4.0875 21.8875 3.3625 21.1625 3.05 20.0375C2.8875 19.45 2.775 18.6625 2.7 17.6625C2.6125 16.6625 2.575 15.8 2.575 15.05L2.5 14C2.5 11.2625 2.7 9.25 3.05 7.9625C3.3625 6.8375 4.0875 6.1125 5.2125 5.8C5.8 5.6375 6.875 5.525 8.525 5.45C10.15 5.3625 11.6375 5.325 13.0125 5.325L15 5.25C20.2375 5.25 23.5 5.45 24.7875 5.8C25.9125 6.1125 26.6375 6.8375 26.95 7.9625Z" fill="#F8F8F8"/>
</svg>
