<svg width="24" height="25" viewBox="0 0 24 25" fill="none" xmlns="http://www.w3.org/2000/svg">
<g clip-path="url(#clip0_28_90)">
<path fill-rule="evenodd" clip-rule="evenodd" d="M14 1C14.5304 1 15.0391 1.21071 15.4142 1.58579C15.7893 1.96086 16 2.46957 16 3C16.0005 3.69111 16.2393 4.36091 16.6761 4.89647C17.113 5.43202 17.7211 5.80058 18.398 5.94C18.9178 6.04556 19.3744 6.35329 19.6674 6.7955C19.9603 7.23771 20.0656 7.77818 19.96 8.298C19.8544 8.81782 19.5467 9.27443 19.1045 9.56736C18.6623 9.86029 18.1218 9.96556 17.602 9.86C17.0483 9.74734 16.5103 9.56769 16 9.325V15C16 16.1222 15.6852 17.222 15.0914 18.1743C14.4976 19.1265 13.6487 19.8932 12.641 20.3872C11.6334 20.8812 10.5074 21.0827 9.39093 20.9687C8.27449 20.8548 7.21238 20.4301 6.32525 19.7428C5.43812 19.0554 4.76154 18.1331 4.37235 17.0805C3.98317 16.0279 3.89699 14.8873 4.1236 13.7881C4.35022 12.689 4.88054 11.6755 5.65433 10.8627C6.42812 10.0499 7.41435 9.47037 8.501 9.19C9.01142 9.0669 9.54977 9.14946 9.99984 9.41985C10.4499 9.69023 10.7756 10.1268 10.9066 10.6352C11.0376 11.1436 10.9635 11.6832 10.7001 12.1374C10.4368 12.5917 10.0053 12.9241 9.499 13.063C9.03018 13.1874 8.62246 13.4778 8.35162 13.8802C8.08078 14.2826 7.96523 14.7696 8.02646 15.2508C8.0877 15.7319 8.32153 16.1745 8.68452 16.4962C9.04751 16.818 9.51496 16.997 10 17C10.5304 17 11.0391 16.7893 11.4142 16.4142C11.7893 16.0391 12 15.5304 12 15V3C12 2.46957 12.2107 1.96086 12.5858 1.58579C12.9609 1.21071 13.4696 1 14 1Z" fill="#F8F8F8"/>
</g>
<defs>
<clipPath id="clip0_28_90">
<rect width="24" height="24.2412" fill="white" transform="translate(0 0.0654297)"/>
</clipPath>
</defs>
</svg>
