<svg width="24" height="25" viewBox="0 0 24 25" fill="none" xmlns="http://www.w3.org/2000/svg">
<path d="M13.028 1.00099C13.7577 0.998186 14.4875 1.00552 15.217 1.02299L15.411 1.02999C15.635 1.03799 15.856 1.04799 16.123 1.05999C17.187 1.10999 17.913 1.27799 18.55 1.52499C19.21 1.77899 19.766 2.12299 20.322 2.67899C20.8304 3.17859 21.2238 3.78293 21.475 4.44999C21.722 5.08699 21.89 5.81399 21.94 6.87799C21.952 7.14399 21.962 7.36599 21.97 7.58999L21.976 7.78399C21.9938 8.51318 22.0014 9.24258 21.999 9.97199L22 10.718V12.028C22.0025 12.7577 21.9948 13.4875 21.977 14.217L21.971 14.411C21.963 14.635 21.953 14.856 21.941 15.123C21.891 16.187 21.721 16.913 21.475 17.55C21.2246 18.2177 20.8311 18.8226 20.322 19.322C19.822 19.8303 19.2173 20.2237 18.55 20.475C17.913 20.722 17.187 20.89 16.123 20.94C15.856 20.952 15.635 20.962 15.411 20.97L15.217 20.976C14.4875 20.9938 13.7577 21.0014 13.028 20.999L12.282 21H10.973C10.2433 21.0025 9.51352 20.9948 8.784 20.977L8.59 20.971C8.35261 20.9624 8.11527 20.9524 7.878 20.941C6.814 20.891 6.088 20.721 5.45 20.475C4.78268 20.2243 4.17823 19.8308 3.679 19.322C3.17004 18.8223 2.77622 18.2175 2.525 17.55C2.278 16.913 2.11 16.187 2.06 15.123C2.04886 14.8857 2.03886 14.6484 2.03 14.411L2.025 14.217C2.00656 13.4875 1.99823 12.7577 2 12.028V9.97199C1.99721 9.24259 2.00454 8.51318 2.022 7.78399L2.029 7.58999C2.037 7.36599 2.047 7.14399 2.059 6.87799C2.109 5.81299 2.277 5.08799 2.524 4.44999C2.77537 3.78261 3.16996 3.17843 3.68 2.67999C4.17889 2.17074 4.78296 1.77656 5.45 1.52499C6.088 1.27799 6.813 1.10999 7.878 1.05999L8.59 1.02999L8.784 1.02499C9.51318 1.00656 10.2426 0.998225 10.972 0.999986L13.028 1.00099ZM12 6.00099C11.3375 5.99162 10.6798 6.11401 10.065 6.36105C9.45019 6.6081 8.89064 6.97486 8.41884 7.44004C7.94704 7.90522 7.5724 8.45952 7.31668 9.07075C7.06097 9.68197 6.92929 10.3379 6.92929 11.0005C6.92929 11.663 7.06097 12.319 7.31668 12.9302C7.5724 13.5414 7.94704 14.0958 8.41884 14.5609C8.89064 15.0261 9.45019 15.3929 10.065 15.6399C10.6798 15.887 11.3375 16.0094 12 16C13.3261 16 14.5978 15.4732 15.5355 14.5355C16.4732 13.5978 17 12.3261 17 11C17 9.6739 16.4732 8.40213 15.5355 7.46445C14.5978 6.52677 13.3261 6.00099 12 6.00099ZM12 8.00099C12.3985 7.99364 12.7945 8.06578 13.1648 8.21319C13.5351 8.3606 13.8723 8.58033 14.1568 8.85953C14.4412 9.13873 14.6672 9.47182 14.8214 9.83933C14.9757 10.2068 15.0552 10.6014 15.0553 11C15.0553 11.3986 14.976 11.7931 14.8218 12.1607C14.6677 12.5283 14.4418 12.8614 14.1575 13.1407C13.8731 13.42 13.536 13.6399 13.1657 13.7874C12.7955 13.9349 12.3995 14.0072 12.001 14C11.2053 14 10.4423 13.6839 9.87968 13.1213C9.31707 12.5587 9.001 11.7956 9.001 11C9.001 10.2043 9.31707 9.44127 9.87968 8.87867C10.4423 8.31606 11.2053 7.99999 12.001 7.99999L12 8.00099ZM17.25 4.50099C16.9274 4.5139 16.6223 4.65114 16.3986 4.88396C16.1749 5.11678 16.05 5.42712 16.05 5.74999C16.05 6.07285 16.1749 6.38319 16.3986 6.61601C16.6223 6.84884 16.9274 6.98607 17.25 6.99899C17.5815 6.99899 17.8995 6.86729 18.1339 6.63287C18.3683 6.39845 18.5 6.08051 18.5 5.74899C18.5 5.41747 18.3683 5.09952 18.1339 4.8651C17.8995 4.63068 17.5815 4.49899 17.25 4.49899V4.50099Z" fill="#F8F8F8"/>
</svg>
