<svg width="1440" height="780" viewBox="0 0 1440 780" fill="none" xmlns="http://www.w3.org/2000/svg">
<path fill-rule="evenodd" clip-rule="evenodd" d="M-1 780H38.655C79.5117 780 158.822 780 239.333 751.111C319.845 722.222 399.155 664.444 479.667 577.778C560.178 491.111 639.488 375.556 720 288.889C800.512 202.222 879.822 144.444 960.333 115.556C1040.85 86.6667 1120.16 86.6667 1200.67 86.6667C1281.18 86.6667 1360.49 86.6667 1401.35 86.6667H1441V0H1401.35C1360.49 0 1281.18 0 1200.67 0C1120.16 0 1040.85 0 960.333 0C879.822 0 800.512 0 720 0C639.488 0 560.178 0 479.667 0C399.155 0 319.845 0 239.333 0C158.822 0 79.5117 0 38.655 0H-1V780Z" fill="#002072"/>
</svg>
