<svg width="1442" height="780" viewBox="0 0 1442 780" fill="none" xmlns="http://www.w3.org/2000/svg">
<path fill-rule="evenodd" clip-rule="evenodd" d="M1442 -1.45435e-05H1402.34C1361.49 -1.45435e-05 1282.18 1.21593e-05 1201.67 28.8889C1121.15 57.7778 1041.84 115.556 961.333 202.222C880.822 288.889 801.512 404.444 721 491.111C640.488 577.778 561.178 635.556 480.667 664.444C400.155 693.333 320.845 693.333 240.333 693.333C159.822 693.333 80.5116 693.333 39.6549 693.333H0V780H39.6549C80.5116 780 159.822 780 240.333 780C320.845 780 400.155 780 480.667 780C561.178 780 640.488 780 721 780C801.512 780 880.822 780 961.333 780C1041.84 780 1121.15 780 1201.67 780C1282.18 780 1361.49 780 1402.34 780H1442V-1.45435e-05Z" fill="#F1F1F1"/>
</svg>
